<?xml version="1.0" encoding="iso-8859-1"?>
<!-- Uploaded to: SVG Repo, www.svgrepo.com, Generator: SVG Repo Mixer Tools -->
<svg height="800px" width="800px" version="1.1" id="Layer_1" xmlns="http://www.w3.org/2000/svg" xmlns:xlink="http://www.w3.org/1999/xlink" 
	 viewBox="0 0 512 512" xml:space="preserve">
<path style="fill:#963737;" d="M366.933,355.052l-6.109,79.418c-1.367,17.783-16.197,31.516-34.033,31.516H185.209
	c-17.836,0-32.665-13.732-34.033-31.516l-6.109-79.418H366.933z"/>
<g>
	<path style="fill:#FFFFFF;" d="M187.733,363.585l13.227,39.68c1.23,3.691,6.45,3.691,7.68,0l13.227-39.68H187.733z"/>
	<path style="fill:#FFFFFF;" d="M290.133,363.585l13.227,39.68c1.23,3.691,6.45,3.691,7.68,0l13.227-39.68H290.133z"/>
</g>
<path style="fill:#C83741;" d="M343.809,433.16c-0.681,8.836-8.155,15.758-17.017,15.758H185.209
	c-8.862,0-16.336-6.922-17.017-15.758l-6.007-78.109h-17.118l6.109,79.418c1.369,17.783,16.197,31.516,34.033,31.516h141.583
	c17.836,0,32.665-13.732,34.033-31.516l6.109-79.418h-17.117L343.809,433.16z"/>
<path style="fill:#FFDC78;" d="M375.467,99.051c-33.084-26.745-74.502-42.667-119.482-42.667c-44.82,0-86.105,15.81-119.131,42.383
	L256,201.451L375.467,99.051z"/>
<g>
	<path style="fill:#FFCF65;" d="M94.431,15.173c-0.399-3.486-4.947-4.535-6.737-1.518C82.806,21.891,76.8,36.134,76.8,56.385
		c0,34.133,34.133,68.267,34.133,68.267h59.733C170.667,100.34,101.403,76.029,94.431,15.173z"/>
	<path style="fill:#FFCF65;" d="M417.57,15.173c0.399-3.486,4.947-4.535,6.737-1.518c4.886,8.236,10.893,22.479,10.893,42.73
		c0,34.133-34.133,68.267-34.133,68.267h-59.733C341.333,100.34,410.598,76.029,417.57,15.173z"/>
</g>
<g>
	<path style="fill:#FFB450;" d="M68.267,320.918c-29.042,0-51.2-30.291-51.2-42.667c0-4.717-3.817-8.533-8.533-8.533
		S0,273.535,0,278.251c0,20.983,28.15,59.733,68.267,59.733h81.067v-17.067H68.267z"/>
	<path style="fill:#FFB450;" d="M503.467,269.718c-4.717,0-8.533,3.817-8.533,8.533c0,12.375-22.158,42.667-51.2,42.667h-80v17.067
		h80c40.116,0,68.267-38.75,68.267-59.733C512,273.535,508.184,269.718,503.467,269.718z"/>
</g>
<g>
	<path style="fill:#FF4B4B;" d="M477.867,252.652c-4.717,0-8.533,3.817-8.533,8.533c0,11.9-12.516,34.133-42.667,34.133h-25.6
		v17.067h25.6c38.975,0,59.733-29.733,59.733-51.2C486.4,256.468,482.583,252.652,477.867,252.652z"/>
	<path style="fill:#FF4B4B;" d="M85.333,295.318c-30.15,0-42.667-22.234-42.667-34.133c0-4.717-3.817-8.533-8.533-8.533
		s-8.533,3.817-8.533,8.533c0,21.467,20.758,51.2,59.733,51.2h25.6v-17.067H85.333z"/>
	<path style="fill:#FF4B4B;" d="M349.867,320.918H162.133l-39.342,19.67c-4.866,2.433-4.635,9.472,0.349,11.655
		C201.909,386.767,256,363.585,256,363.585s54.091,23.182,132.86-11.341c4.982-2.183,5.214-9.222,0.349-11.655L349.867,320.918z"/>
</g>
<path style="fill:#FFCF65;" d="M349.867,124.651c-42.017,0-78.081,25.33-93.867,61.532c-15.786-36.202-51.85-61.532-93.867-61.532
	c-56.555,0-102.4,45.846-102.4,102.4s45.846,102.4,102.4,102.4c42.017,0,78.081-25.33,93.867-61.532
	c15.786,36.202,51.85,61.532,93.867,61.532c56.555,0,102.4-45.846,102.4-102.4C452.267,170.497,406.421,124.651,349.867,124.651z"/>
<g>
	<circle style="fill:#FFB450;" cx="162.133" cy="227.05" r="85.333"/>
	<circle style="fill:#FFB450;" cx="349.867" cy="227.05" r="85.333"/>
</g>
<circle style="fill:#963737;" cx="162.133" cy="227.05" r="59.733"/>
<circle style="fill:#FFFFFF;" cx="162.133" cy="227.05" r="34.133"/>
<circle style="fill:#FF4B4B;" cx="162.133" cy="227.05" r="12.8"/>
<path style="fill:#FFDC78;" d="M318.459,289.496c-4.702-2.293-9.206-2.991-13.395-2.615c-4.031,0.361-7.645-2.033-8.997-5.849
	c-5.859-16.525-21.527-28.381-40.066-28.381s-34.207,11.856-40.066,28.381c-1.353,3.814-4.966,6.209-8.997,5.849
	c-4.189-0.375-8.693,0.323-13.395,2.615c-6.662,3.249-11.859,9.357-13.585,16.566c-4.039,16.878,8.645,31.922,24.844,31.922
	c9.131,0,17.089-4.816,21.62-12.01c7.674,7.405,18.073,12.01,29.58,12.01c11.507,0,21.906-4.605,29.58-12.01
	c4.532,7.194,12.49,12.01,21.62,12.01c16.198,0,28.882-15.044,24.844-31.922C330.318,298.854,325.121,292.746,318.459,289.496z"/>
<g>
	<path style="fill:#FF4B4B;" d="M191.648,160.376c-19.357-8.838-59.718-22.627-118.665-19.602c-3.82,0.196-5.471-4.787-2.263-6.871
		c24.86-16.157,87.324-48.164,139.494-3.651c6.963,5.941,8.569,16.093,3.491,23.709l0,0
		C208.889,161.186,199.548,163.984,191.648,160.376z"/>
	<path style="fill:#FF4B4B;" d="M320.352,160.376c19.357-8.838,59.718-22.627,118.665-19.602c3.82,0.196,5.471-4.787,2.263-6.871
		c-24.86-16.157-87.324-48.164-139.494-3.651c-6.963,5.941-8.569,16.093-3.491,23.709l0,0
		C303.113,161.186,312.452,163.984,320.352,160.376z"/>
</g>
<path style="fill:#FFCF65;" d="M358.41,465.985c3.573,0,5.521,4.282,3.132,6.94c-18.18,20.227-48.277,27.194-71.408,27.194
	c-17.067,0-34.133-8.533-34.133-8.533s-17.067,8.533-34.133,8.533c-23.131,0-53.228-6.966-71.408-27.194
	c-2.388-2.658-0.442-6.94,3.132-6.94H358.41z"/>
<g>
	<path style="fill:#FFFFFF;" d="M221.867,465.985l-13.572-33.931c-1.262-3.154-5.727-3.154-6.989,0l-13.572,33.931"/>
	<path style="fill:#FFFFFF;" d="M324.267,465.985l-13.572-33.931c-1.262-3.154-5.727-3.154-6.989,0l-13.572,33.931"/>
</g>
<circle style="fill:#963737;" cx="349.867" cy="227.05" r="59.733"/>
<circle style="fill:#FFFFFF;" cx="349.867" cy="227.05" r="34.133"/>
<circle style="fill:#FF4B4B;" cx="349.867" cy="227.05" r="12.8"/>
</svg>